<svg width="1233" height="1109" viewBox="0 0 1233 1109" fill="none" xmlns="http://www.w3.org/2000/svg">
<path d="M230.925 383.625C0.130722 500.178 -73.6852 693.176 154.186 667.253C218.968 659.884 408.816 620.367 612.642 620.367C807.648 620.367 1016.29 667.253 1118.55 667.253C1327.69 667.253 1156.43 456.68 1012.76 383.625C804.843 277.891 461.719 267.071 230.925 383.625Z" stroke="white" stroke-width="32"/>
<path d="M462.566 554.81C462.566 402.464 480.417 264.916 509.058 165.774C523.398 116.136 540.282 76.6941 558.59 49.8895C577.121 22.7576 595.562 10.7052 612.641 10.7052C629.719 10.7052 648.16 22.7576 666.691 49.8895C684.999 76.6941 701.883 116.136 716.223 165.774C744.864 264.916 762.715 402.464 762.715 554.81C762.715 707.156 744.864 844.704 716.223 943.846C701.884 993.484 684.999 1032.93 666.691 1059.73C648.16 1086.86 629.719 1098.91 612.641 1098.91C595.562 1098.91 577.121 1086.86 558.59 1059.73C540.282 1032.93 523.398 993.484 509.058 943.846C480.417 844.704 462.566 707.156 462.566 554.81Z" stroke="white" stroke-width="20"/>
</svg>
