<svg width="48" height="38" viewBox="0 0 48 38" fill="none" xmlns="http://www.w3.org/2000/svg">
<path d="M9.95155 13.7526C1.41294 18.0647 -1.31799 25.205 7.11248 24.2459C9.50917 23.9733 16.5329 22.5113 24.0738 22.5113C31.2884 22.5113 39.0074 24.2459 42.7906 24.2459C50.528 24.2459 44.192 16.4554 38.877 13.7526C31.1846 9.84081 18.4902 9.44053 9.95155 13.7526Z" stroke="#7E7E7E" stroke-width="3"/>
<path d="M19 19C19 13.8265 19.6636 9.18278 20.7109 5.8661C21.2365 4.20192 21.8413 2.92786 22.4658 2.09137C23.1039 1.23681 23.6331 1 24 1C24.3669 1 24.8961 1.23681 25.5342 2.09137C26.1587 2.92786 26.7635 4.20192 27.2891 5.8661C28.3364 9.18278 29 13.8265 29 19C29 24.1735 28.3364 28.8172 27.2891 32.1339C26.7635 33.7981 26.1587 35.0721 25.5342 35.9086C24.8961 36.7632 24.3669 37 24 37C23.6331 37 23.1039 36.7632 22.4658 35.9086C21.8413 35.0721 21.2365 33.7981 20.7109 32.1339C19.6636 28.8172 19 24.1735 19 19Z" stroke="#7E7E7E" stroke-width="2"/>
</svg>
